<?xml version="1.0" standalone="no"?>
<!DOCTYPE svg PUBLIC "-//W3C//DTD SVG 20010904//EN"
 "http://www.w3.org/TR/2001/REC-SVG-20010904/DTD/svg10.dtd">
<svg version="1.0" xmlns="http://www.w3.org/2000/svg"
 width="534.000000pt" height="467.000000pt" viewBox="0 0 534.000000 467.000000"
 preserveAspectRatio="xMidYMid meet">

<g transform="translate(0.000000,467.000000) scale(0.100000,-0.100000)"
fill="#000000" stroke="none">
<path d="M2399 3852 c-99 -36 -183 -119 -214 -212 -26 -75 -27 -215 -2 -250
17 -24 17 -24 17 -2 0 13 6 22 15 22 8 0 15 -8 15 -17 0 -12 3 -14 8 -6 5 9
17 9 48 1 51 -14 87 -5 118 29 l25 27 -5 -39 c-7 -49 -30 -70 -85 -79 -31 -5
-39 -10 -31 -18 8 -8 5 -19 -11 -40 l-22 -29 27 -47 c30 -53 43 -61 51 -32 4
17 10 20 33 14 19 -5 25 -4 20 5 -5 7 2 11 21 12 39 1 105 9 121 14 23 8 12
-12 -14 -23 -14 -7 -22 -17 -19 -22 3 -6 -4 -10 -17 -10 -13 0 -33 -3 -45 -6
l-21 -6 21 -21 c19 -19 33 -22 95 -21 39 0 72 -3 72 -7 0 -12 -31 -33 -67 -45
-29 -10 -34 -10 -29 2 7 18 -9 18 -28 -1 -8 -8 -24 -15 -35 -15 -11 0 -22 -4
-25 -9 -12 -19 -89 15 -115 50 -14 19 -19 28 -11 22 19 -17 30 -16 30 1 0 8
-13 24 -28 35 -22 15 -29 17 -29 6 0 -8 4 -12 9 -9 4 3 8 1 8 -5 0 -5 -5 -11
-11 -13 -12 -4 65 -135 91 -154 41 -31 130 -122 130 -132 0 -7 -13 -26 -29
-42 -21 -23 -37 -30 -64 -30 -37 0 -117 26 -117 39 -1 31 -30 265 -34 268 -4
4 -24 -5 -121 -56 -23 -12 -56 -33 -74 -49 -30 -25 -33 -33 -35 -85 -1 -43 -5
-57 -16 -57 -8 0 -26 -16 -39 -35 -13 -19 -28 -35 -33 -35 -5 0 -6 5 -3 10 13
20 -13 9 -58 -26 -25 -19 -48 -42 -51 -50 -3 -7 -12 -11 -19 -8 -22 8 -89 -75
-81 -100 4 -15 3 -17 -4 -7 -7 10 -21 -15 -50 -90 -54 -140 -88 -258 -108
-387 -10 -59 -34 -191 -54 -294 -33 -165 -35 -188 -21 -189 12 0 12 -2 -3 -8
-23 -9 -48 -85 -39 -121 3 -14 28 -74 55 -135 131 -290 154 -325 218 -325 40
0 50 -11 50 -55 0 -15 10 -31 26 -42 57 -39 76 -63 69 -86 -8 -25 -43 -519
-44 -619 -1 -49 6 -86 25 -137 l26 -71 297 0 296 0 23 78 c12 43 22 84 22 92
0 7 8 30 17 51 14 32 19 36 35 28 23 -12 52 -73 81 -170 l23 -74 294 -3 c317
-3 310 -4 310 51 0 15 9 45 20 67 26 51 25 79 -4 190 -27 101 -51 273 -41 298
3 9 6 68 6 131 0 128 12 162 83 230 20 19 43 55 51 81 9 26 36 70 60 99 25 29
70 95 101 146 47 79 57 106 69 176 9 60 10 101 3 149 -39 272 -99 523 -190
800 -68 208 -88 249 -150 306 -46 42 -222 137 -275 149 -42 9 -46 17 -32 64
15 50 -1 78 -64 115 -23 14 -53 39 -65 56 -17 23 -30 30 -55 30 -18 0 -37 -4
-43 -8 -6 -4 -14 -50 -17 -104 -5 -96 -16 -132 -46 -155 -23 -18 -42 -16 -34
3 5 13 7 13 14 2 5 -7 9 -11 10 -8 3 21 8 38 15 55 7 18 6 18 -9 6 -27 -22
-22 14 8 53 17 22 27 51 31 87 14 146 18 163 42 175 28 14 42 27 20 19 -11 -4
-20 1 -27 14 -10 17 -9 20 4 15 9 -4 15 0 15 9 0 8 7 17 15 21 19 7 19 30 1
45 -12 10 -15 7 -18 -21 -4 -42 -22 -43 -26 -1 -2 19 4 39 14 52 16 19 18 19
32 3 13 -16 13 -15 7 3 -3 10 -10 51 -15 90 -5 41 -21 95 -38 130 -16 33 -32
70 -36 82 -12 39 -99 106 -174 136 -82 31 -82 31 -143 9z m99 -144 c95 3 146
-11 172 -48 22 -32 24 -75 3 -75 -17 0 -16 -10 3 -40 20 -31 14 -41 -16 -25
-34 18 -106 14 -154 -10 -25 -12 -53 -20 -63 -19 -10 0 -53 2 -95 3 -67 1 -79
-2 -100 -21 -36 -34 -51 -30 -42 10 4 17 6 55 5 84 -2 47 1 56 36 94 48 53 67
60 128 52 28 -4 83 -6 123 -5z m222 -198 c0 -5 -5 -10 -11 -10 -5 0 -7 5 -4
10 3 6 8 10 11 10 2 0 4 -4 4 -10z m-425 -70 c-47 -22 -55 -23 -55 -10 0 5 15
14 33 19 53 15 65 11 22 -9z m202 -44 c9 -17 16 -44 14 -61 -2 -28 -1 -29 13
-10 12 16 17 18 28 7 17 -17 -5 -32 -49 -32 -17 0 -35 -5 -38 -10 -8 -12 -74
-10 -82 3 -3 5 4 18 15 30 19 21 53 91 51 105 -5 34 24 15 48 -32z m244 22 c8
-43 -5 -103 -22 -106 -20 -4 -52 26 -43 40 4 7 -7 8 -35 3 -25 -4 -41 -3 -41
3 0 5 -9 12 -20 15 -34 9 -22 24 23 30 23 4 54 9 70 13 21 5 27 3 27 -10 0 -9
5 -16 11 -16 5 0 7 5 4 10 -8 13 1 40 14 40 5 0 10 -10 12 -22z m-424 -14 c-3
-3 -12 -4 -19 -1 -8 3 -5 6 6 6 11 1 17 -2 13 -5z m118 -156 c31 -14 16 -28
-32 -28 -35 0 -41 8 -21 28 15 15 21 15 53 0z m205 -402 c0 -2 -7 -6 -15 -10
-8 -3 -15 -1 -15 4 0 6 7 10 15 10 8 0 15 -2 15 -4z m0 -36 c0 -5 -5 -10 -11
-10 -5 0 -7 5 -4 10 3 6 8 10 11 10 2 0 4 -4 4 -10z m-592 -55 c-3 -3 -9 2
-12 12 -6 14 -5 15 5 6 7 -7 10 -15 7 -18z m649 -63 c1 -58 25 -282 39 -381 4
-22 12 -35 25 -38 16 -4 19 -11 14 -27 -3 -11 -8 -34 -11 -51 -2 -16 -6 -36
-9 -44 -9 -22 16 -265 27 -272 6 -4 6 -9 1 -12 -5 -3 -6 -44 -2 -93 6 -81 13
-416 10 -512 0 -24 -5 -41 -10 -38 -4 3 -11 112 -15 243 -4 131 -12 281 -17
333 -5 52 -13 150 -18 218 -4 68 -13 128 -18 133 -6 6 -8 24 -3 42 3 18 1 86
-6 152 -7 66 -18 167 -24 225 -5 58 -12 116 -15 128 -7 30 3 62 18 62 8 0 13
-23 14 -68z m-383 -94 c3 -24 8 -118 11 -210 5 -134 10 -176 25 -210 10 -23
16 -45 13 -48 -3 -3 -8 1 -10 8 -3 6 -9 12 -14 12 -12 0 -12 -141 0 -172 5
-13 11 -48 14 -78 3 -30 4 -47 1 -37 -3 9 -9 17 -13 17 -4 0 -11 -183 -15
-407 -7 -402 -11 -477 -26 -468 -4 3 -6 85 -4 182 6 365 6 897 -1 1171 -6 200
-5 282 3 282 6 0 13 -19 16 -42z m254 -374 c3 -54 0 -62 -17 -67 -29 -7 -41
12 -41 68 0 58 5 67 35 63 17 -3 20 -11 23 -64z m77 56 c3 -5 -1 -10 -9 -10
-9 0 -16 -9 -16 -20 0 -11 5 -20 10 -20 6 0 10 -4 10 -10 0 -5 -6 -10 -14 -10
-8 0 -17 -12 -19 -27 -2 -16 -5 2 -6 40 -1 60 1 67 18 67 11 0 23 -4 26 -10z
m-214 -30 c4 -59 6 -77 13 -92 5 -11 4 -18 -3 -18 -6 0 -11 4 -11 8 0 5 -6 17
-14 27 -13 18 -14 18 -9 -8 3 -15 1 -27 -4 -27 -11 0 -33 116 -25 125 3 3 16
5 29 5 16 0 23 -6 24 -20z m428 -6 c4 -4 -25 -114 -33 -121 -11 -11 -47 19
-42 35 3 9 10 36 16 60 10 38 14 42 33 36 12 -3 24 -8 26 -10z m-599 -23 c0
-6 -4 -13 -10 -16 -19 -12 -10 -35 13 -35 19 -1 20 -2 6 -13 -18 -14 -14 -37
7 -37 19 0 18 -16 -3 -24 -22 -9 -28 -1 -46 62 -14 48 -13 53 2 62 21 12 31
12 31 1z m673 -14 c8 -20 -29 -102 -48 -105 -32 -7 -36 13 -14 66 21 51 50 69
62 39z m-750 -28 c-15 -15 -5 -39 13 -32 16 6 19 -13 4 -22 -7 -4 -6 -13 1
-27 7 -12 7 -24 1 -30 -5 -5 -17 13 -31 49 -21 54 -21 58 -5 70 20 15 33 8 17
-8z m647 -230 c0 -46 3 -59 15 -59 8 0 15 -4 15 -10 0 -5 -11 -10 -25 -10 -24
0 -25 2 -25 76 0 47 4 73 10 69 6 -3 10 -33 10 -66z m-215 -14 l0 -70 -30 0
c-30 0 -30 1 -33 59 -4 76 1 88 35 84 27 -3 28 -4 28 -73z m78 33 c4 -24 9
-58 13 -75 7 -37 -10 -46 -20 -10 l-6 22 -15 -25 -14 -25 -1 31 c-1 106 31
167 43 82z m-427 23 c5 -6 7 -39 6 -75 -4 -65 -4 -66 -33 -66 l-29 0 0 69 c0
70 1 71 41 80 3 0 9 -3 15 -8z m184 -16 c0 -14 -4 -25 -10 -25 -5 0 -10 7 -10
15 0 8 -4 15 -10 15 -16 0 -11 -23 10 -50 11 -14 20 -38 20 -53 0 -25 -3 -28
-27 -25 -20 2 -29 9 -31 26 -2 12 1 22 7 22 6 0 11 -7 11 -15 0 -8 5 -15 10
-15 17 0 11 30 -10 57 -11 14 -20 36 -20 49 0 20 5 24 30 24 25 0 30 -4 30
-25z m63 15 c-13 -5 -23 -11 -23 -14 0 -17 15 -36 29 -36 14 -1 14 -2 -1 -14
-10 -7 -18 -23 -18 -35 0 -13 6 -21 18 -22 13 0 12 -3 -6 -11 -12 -6 -24 -9
-26 -7 -2 2 -6 37 -8 77 l-5 72 31 -1 c29 0 29 -1 9 -9z m702 -330 c3 -5 19
-10 36 -10 37 0 39 -25 2 -33 -16 -3 -36 -18 -45 -34 l-17 -28 -1 58 c0 53 10
71 25 47z m-1279 -165 c-11 -166 -19 -179 -56 -102 -25 51 -25 64 0 72 25 8
50 55 50 95 0 16 3 30 6 30 4 0 4 -43 0 -95z m1283 -10 c0 -33 -23 -83 -32
-69 -3 6 -3 38 0 72 5 54 7 60 19 45 7 -10 13 -31 13 -48z"/>
<path d="M2605 3610 c3 -5 8 -10 11 -10 2 0 4 5 4 10 0 6 -5 10 -11 10 -5 0
-7 -4 -4 -10z"/>
<path d="M2740 2250 c0 -5 5 -10 11 -10 5 0 7 5 4 10 -3 6 -8 10 -11 10 -2 0
-4 -4 -4 -10z"/>
<path d="M2530 2219 c0 -32 4 -49 11 -47 6 2 10 7 10 11 -1 4 -1 25 -1 47 0
22 -4 40 -10 40 -5 0 -10 -23 -10 -51z"/>
<path d="M2400 2236 c0 -9 5 -16 10 -16 6 0 10 4 10 9 0 6 -4 13 -10 16 -5 3
-10 -1 -10 -9z"/>
<path d="M2811 2196 c-13 -54 -13 -56 -1 -56 9 0 30 61 30 88 0 29 -19 8 -29
-32z"/>
<path d="M2887 2163 c-20 -52 -8 -67 14 -17 21 46 22 54 10 54 -5 0 -16 -17
-24 -37z"/>
<path d="M2570 1970 c0 -11 5 -20 10 -20 6 0 10 9 10 20 0 11 -4 20 -10 20 -5
0 -10 -9 -10 -20z"/>
<path d="M2570 1905 c0 -16 6 -25 15 -25 16 0 19 9 9 34 -9 25 -24 19 -24 -9z"/>
<path d="M2671 1924 c0 -11 3 -14 6 -6 3 7 2 16 -1 19 -3 4 -6 -2 -5 -13z"/>
<path d="M2238 1974 c-5 -4 -8 -16 -8 -28 0 -14 3 -17 11 -9 6 6 9 19 7 28 -1
9 -6 13 -10 9z"/>
<path d="M2230 1891 c0 -11 5 -23 10 -26 6 -4 10 5 10 19 0 14 -4 26 -10 26
-5 0 -10 -9 -10 -19z"/>
<path d="M2148 3354 c3 -17 8 -22 15 -15 11 11 3 41 -11 41 -5 0 -7 -12 -4
-26z"/>
</g>
</svg>
