<?xml version="1.0" standalone="no"?>
<!DOCTYPE svg PUBLIC "-//W3C//DTD SVG 20010904//EN"
 "http://www.w3.org/TR/2001/REC-SVG-20010904/DTD/svg10.dtd">
<svg version="1.0" xmlns="http://www.w3.org/2000/svg"
 width="165.000000pt" height="159.000000pt" viewBox="0 0 165.000000 159.000000"
 preserveAspectRatio="xMidYMid meet">

<g transform="translate(0.000000,159.000000) scale(0.100000,-0.100000)"
fill="#000000" stroke="none">
<path d="M783 1465 c-33 -14 -63 -59 -63 -94 0 -11 -4 -23 -10 -26 -6 -4 -10
-60 -10 -136 l0 -129 135 0 135 0 0 129 c0 76 -4 132 -10 136 -5 3 -10 15 -10
26 0 36 -31 80 -65 95 -42 17 -61 17 -102 -1z m106 -21 c21 -15 57 -81 49 -89
-10 -10 -202 -7 -206 3 -6 19 28 79 51 90 33 16 80 14 106 -4z m-21 -156 c15
-15 16 -54 2 -63 -5 -3 -10 -24 -10 -46 0 -36 -2 -39 -29 -39 -27 0 -28 1 -34
67 -4 43 -3 71 4 80 14 16 51 17 67 1z"/>
<path d="M349 1062 c-35 -21 -94 -56 -131 -78 -60 -35 -68 -42 -67 -69 l1 -30
9 27 c8 20 40 44 125 92 63 36 121 66 130 66 9 0 67 -30 130 -67 l114 -68 0
-142 c0 -137 -1 -143 -22 -156 -13 -8 -67 -40 -122 -72 -95 -56 -99 -57 -125
-43 -14 9 -70 41 -124 72 l-97 57 -1 82 c0 45 -4 91 -9 102 -6 13 -9 -17 -9
-85 l-1 -106 33 -19 c17 -11 44 -26 59 -35 15 -8 62 -34 104 -58 l76 -42 28
20 c15 11 36 23 46 27 11 5 56 30 102 56 l82 49 0 152 0 151 -112 66 c-168 99
-146 94 -219 51z"/>
<path d="M1117 1018 l-127 -73 0 -121 c0 -67 -3 -135 -6 -151 -6 -29 -3 -32
78 -79 45 -26 97 -55 113 -64 17 -9 40 -22 52 -30 23 -15 54 -1 218 95 l70 41
3 151 3 151 -38 22 c-36 22 -115 68 -191 111 -18 11 -36 19 -40 19 -5 0 -65
-33 -135 -72z m203 17 c19 -12 64 -39 100 -60 36 -21 68 -43 72 -49 11 -16 10
-240 -1 -268 -5 -14 -32 -36 -62 -53 -30 -15 -83 -46 -117 -67 l-64 -38 -31
23 c-18 12 -48 31 -68 42 -19 11 -59 33 -87 49 l-52 29 0 147 c0 142 1 147 23
158 12 6 45 24 72 40 159 93 146 90 215 47z"/>
<path d="M1217 932 c-21 -23 -22 -76 -1 -96 8 -9 28 -16 43 -16 59 0 87 57 51
103 -25 32 -69 36 -93 9z"/>
<path d="M1162 757 c-17 -18 -22 -36 -22 -80 l0 -57 120 0 120 0 0 60 c0 86
-16 100 -118 100 -69 0 -81 -3 -100 -23z"/>
<path d="M361 924 c-24 -31 -25 -35 -9 -69 22 -49 97 -46 118 6 11 27 11 33
-7 57 -29 39 -74 41 -102 6z"/>
<path d="M313 758 c-15 -17 -22 -39 -25 -81 l-3 -57 123 0 122 0 0 44 c0 49
-15 96 -33 108 -7 4 -46 8 -88 8 -66 0 -78 -3 -96 -22z"/>
<path d="M770 564 c-25 -9 -71 -25 -104 -36 l-59 -21 6 -93 c4 -76 10 -103 32
-143 31 -57 72 -99 135 -139 l45 -29 56 38 c108 73 147 144 156 282 3 48 4 87
2 87 -2 0 -51 16 -108 35 -58 19 -107 35 -110 34 -4 0 -26 -7 -51 -15z m154
-35 l96 -31 0 -78 c0 -66 -4 -86 -30 -137 -29 -58 -82 -112 -139 -142 -29 -16
-54 -6 -116 45 -65 55 -99 131 -103 231 l-4 81 74 22 c40 13 82 26 93 31 29
11 24 12 129 -22z"/>
<path d="M862 360 c-22 -22 -43 -40 -48 -40 -4 0 -18 9 -30 21 -38 36 -50 11
-13 -27 18 -19 36 -34 39 -34 10 0 110 103 110 112 0 17 -20 6 -58 -32z"/>
</g>
</svg>
